<mxfile host="Electron" agent="Mozilla/5.0 (Windows NT 10.0; Win64; x64) AppleWebKit/537.36 (KHTML, like Gecko) draw.io/28.2.5 Chrome/138.0.7204.251 Electron/37.6.1 Safari/537.36" version="28.2.5">
  <diagram name="Page-1" id="ChL121C9iYvEfUfl6cg2">
    <mxGraphModel dx="1426" dy="849" grid="1" gridSize="10" guides="1" tooltips="1" connect="1" arrows="1" fold="1" page="1" pageScale="1" pageWidth="1200" pageHeight="1920" math="0" shadow="0">
      <root>
        <mxCell id="0" />
        <mxCell id="1" parent="0" />
        <mxCell id="o1x1HLAL4F-aaUpwr3ci-2" value="" style="rounded=0;whiteSpace=wrap;html=1;" vertex="1" parent="1">
          <mxGeometry x="80" y="220" width="220" height="490" as="geometry" />
        </mxCell>
        <mxCell id="o1x1HLAL4F-aaUpwr3ci-3" value="" style="html=1;verticalLabelPosition=bottom;align=center;labelBackgroundColor=#ffffff;verticalAlign=top;strokeWidth=2;strokeColor=#0080F0;shadow=0;dashed=0;shape=mxgraph.ios7.icons.data;" vertex="1" parent="1">
          <mxGeometry x="158" y="230" width="52" height="49.1" as="geometry" />
        </mxCell>
        <mxCell id="o1x1HLAL4F-aaUpwr3ci-4" value="Data Source" style="text;html=1;align=center;verticalAlign=middle;resizable=0;points=[];autosize=1;strokeColor=none;fillColor=none;" vertex="1" parent="1">
          <mxGeometry x="110" y="100" width="90" height="30" as="geometry" />
        </mxCell>
        <mxCell id="o1x1HLAL4F-aaUpwr3ci-5" value="customers" style="rounded=1;whiteSpace=wrap;html=1;" vertex="1" parent="1">
          <mxGeometry x="130" y="290" width="120" height="30" as="geometry" />
        </mxCell>
        <mxCell id="o1x1HLAL4F-aaUpwr3ci-6" value="products" style="rounded=1;whiteSpace=wrap;html=1;" vertex="1" parent="1">
          <mxGeometry x="130" y="330" width="120" height="30" as="geometry" />
        </mxCell>
        <mxCell id="o1x1HLAL4F-aaUpwr3ci-7" value="ordres" style="rounded=1;whiteSpace=wrap;html=1;" vertex="1" parent="1">
          <mxGeometry x="130" y="380" width="120" height="30" as="geometry" />
        </mxCell>
        <mxCell id="o1x1HLAL4F-aaUpwr3ci-8" value="order_items" style="rounded=1;whiteSpace=wrap;html=1;" vertex="1" parent="1">
          <mxGeometry x="130" y="425" width="120" height="30" as="geometry" />
        </mxCell>
        <mxCell id="o1x1HLAL4F-aaUpwr3ci-9" value="orders_payment" style="rounded=1;whiteSpace=wrap;html=1;" vertex="1" parent="1">
          <mxGeometry x="130" y="470" width="120" height="30" as="geometry" />
        </mxCell>
        <mxCell id="o1x1HLAL4F-aaUpwr3ci-10" value="sellers" style="rounded=1;whiteSpace=wrap;html=1;" vertex="1" parent="1">
          <mxGeometry x="130" y="510" width="120" height="30" as="geometry" />
        </mxCell>
        <mxCell id="o1x1HLAL4F-aaUpwr3ci-11" value="products" style="rounded=1;whiteSpace=wrap;html=1;" vertex="1" parent="1">
          <mxGeometry x="130" y="560" width="120" height="30" as="geometry" />
        </mxCell>
        <mxCell id="o1x1HLAL4F-aaUpwr3ci-13" value="closed_deals" style="rounded=1;whiteSpace=wrap;html=1;" vertex="1" parent="1">
          <mxGeometry x="130" y="660" width="120" height="30" as="geometry" />
        </mxCell>
        <mxCell id="o1x1HLAL4F-aaUpwr3ci-14" value="qualified_leads" style="rounded=1;whiteSpace=wrap;html=1;" vertex="1" parent="1">
          <mxGeometry x="130" y="610" width="120" height="30" as="geometry" />
        </mxCell>
      </root>
    </mxGraphModel>
  </diagram>
</mxfile>
